<svg width="240" height="169" viewBox="0 0 240 169" fill="none" xmlns="http://www.w3.org/2000/svg">
<path d="M225.305 37.276L221.3 56.6734L218.722 54.1582L214.337 57.2885L210.984 53.1245L203.468 58.5901L197.044 47.8472L189.88 52.0448L187.038 48.1276L177.94 53.2542L175.203 47.3911L181.581 16.5018L215.772 23.5618L225.305 37.276Z" fill="#EBEBEB"/>
<path d="M215.772 23.5619L225.305 37.2761L213.445 34.8278L215.772 23.5619Z" fill="#DBDBDB"/>
<path d="M220.447 60.5487L214.575 89.0065L168.52 79.4982L174.349 51.2706L177.086 57.1295L186.188 52.0029L189.026 55.9201L196.195 51.7267L202.615 62.4696L210.135 57.004L213.483 61.1639L217.873 58.0377L220.447 60.5487Z" fill="#EBEBEB"/>
<path d="M159.139 59.8087L112.205 62.7131L108.476 2.46615L143.328 0.306702L156.122 11.0412L159.139 59.8087Z" fill="#EBEBEB"/>
<path d="M130.334 40.8465L130.15 39.4864C129.677 36.6699 130.447 33.5186 132.895 30.225C135.105 27.2955 136.302 25.203 136.168 22.826C136.017 20.1476 134.239 18.4569 130.928 18.5908C129.036 18.689 127.219 19.3605 125.718 20.5159L124.274 17.2809C125.948 15.9208 128.878 14.9164 131.661 14.7699C137.7 14.4351 140.637 18.0091 140.868 21.9974C141.068 25.5671 139.219 28.2497 136.867 31.3843C134.707 34.2426 134 36.5987 134.306 39.2646L134.435 40.6289L130.334 40.8465ZM129.589 48.2581C129.48 46.3163 130.715 44.8766 132.552 44.7762C134.389 44.6757 135.728 45.9647 135.837 47.9107C135.938 49.7479 134.812 51.2294 132.87 51.3382C131.016 51.4428 129.677 50.0953 129.572 48.2581H129.589Z" fill="#DBDBDB"/>
<path d="M120 168.693C186.274 168.693 240 162.806 240 155.544C240 148.282 186.274 142.395 120 142.395C53.7258 142.395 0 148.282 0 155.544C0 162.806 53.7258 168.693 120 168.693Z" fill="#EBEBEB"/>
<path d="M181.56 160.77H54.0521L72.4869 56.2085H199.995L181.56 160.77Z" fill="#F8B219"/>
<path d="M116.128 45.3777H74.3995L72.4869 56.2085H117.145L116.128 45.3777Z" fill="#F8B219"/>
<g opacity="0.1">
<path opacity="0.1" d="M181.56 160.77H54.0522L72.4871 56.2086H199.995L181.56 160.77Z" fill="black"/>
<path opacity="0.1" d="M116.128 45.3778H74.3996L72.4871 56.2085H117.145L116.128 45.3778Z" fill="black"/>
</g>
<path d="M69.8964 49.7971C69.6174 48.5995 69.6174 47.3537 69.8964 46.1561C70.1754 47.3537 70.1754 48.5995 69.8964 49.7971Z" fill="#263238"/>
<path d="M66.1885 50.8684C65.7624 50.4266 65.3953 49.9314 65.0963 49.3953C64.7826 48.8704 64.5366 48.3079 64.3639 47.7213C64.7913 48.1606 65.1586 48.6545 65.4562 49.1902C65.7691 49.717 66.0151 50.2808 66.1885 50.8684Z" fill="#263238"/>
<path d="M63.5101 53.6515C62.3341 53.2939 61.256 52.6711 60.3588 51.831C60.9455 52.0015 61.508 52.2462 62.0328 52.5592C62.5689 52.8601 63.0652 53.2271 63.5101 53.6515Z" fill="#263238"/>
<path d="M62.5727 57.4012C61.3751 57.6802 60.1294 57.6802 58.9318 57.4012C60.1294 57.1221 61.3751 57.1221 62.5727 57.4012Z" fill="#263238"/>
<path d="M63.6608 61.1091C63.2171 61.533 62.7222 61.8999 62.1877 62.2013C61.6629 62.5143 61.1004 62.759 60.5137 62.9295C60.9555 62.5034 61.4507 62.1363 61.9868 61.8373C62.5108 61.5228 63.0735 61.278 63.6608 61.1091Z" fill="#263238"/>
<path d="M66.4396 63.7833C66.0833 64.9611 65.4604 66.0408 64.6191 66.9388C64.7895 66.3514 65.0357 65.7886 65.3515 65.2648C65.6498 64.7268 66.0155 64.2289 66.4396 63.7833Z" fill="#263238"/>
<path d="M70.1894 64.7082C70.3353 65.3038 70.4056 65.9155 70.3986 66.5287C70.4077 67.142 70.3373 67.7539 70.1894 68.3491C70.0394 67.7542 69.969 67.1421 69.9801 66.5287C69.9732 65.9155 70.0435 65.3038 70.1894 64.7082Z" fill="#263238"/>
<path d="M73.8972 63.6577C74.3233 64.0996 74.6905 64.5947 74.9895 65.1308C75.3039 65.6548 75.5487 66.2176 75.7177 66.8048C74.8764 65.9069 74.2535 64.8271 73.8972 63.6494V63.6577Z" fill="#263238"/>
<path d="M76.5714 60.8538C77.1587 61.0227 77.7214 61.2675 78.2454 61.5819C78.7815 61.881 79.2766 62.2481 79.7185 62.6742C79.1312 62.5053 78.5685 62.2605 78.0445 61.946C77.5084 61.647 77.0133 61.2799 76.5714 60.8538Z" fill="#263238"/>
<path d="M77.4963 57.104C78.6954 56.8251 79.9424 56.8251 81.1414 57.104C79.9424 57.383 78.6954 57.383 77.4963 57.104Z" fill="#263238"/>
<path d="M76.425 53.3962C76.868 52.9726 77.363 52.607 77.8981 52.3081C78.4211 51.9907 78.984 51.7444 79.5721 51.5757C78.6742 52.417 77.5944 53.0399 76.4166 53.3962H76.425Z" fill="#263238"/>
<path d="M73.642 50.722C73.8143 50.136 74.0589 49.5737 74.3701 49.0481C74.6692 48.512 75.0363 48.0168 75.4624 47.575C75.2935 48.1622 75.0487 48.725 74.7342 49.2489C74.4352 49.785 74.0681 50.2802 73.642 50.722Z" fill="#263238"/>
<path d="M181.372 160.77H53.5917L35.4457 60.0043H163.23L181.372 160.77Z" fill="#F8B219"/>
<path d="M79.7269 121.603C82.6599 121.603 85.0376 119.225 85.0376 116.292C85.0376 113.359 82.6599 110.981 79.7269 110.981C76.7938 110.981 74.4161 113.359 74.4161 116.292C74.4161 119.225 76.7938 121.603 79.7269 121.603Z" fill="#263238"/>
<path d="M121.711 121.603C124.644 121.603 127.021 119.225 127.021 116.292C127.021 113.359 124.644 110.981 121.711 110.981C118.778 110.981 116.4 113.359 116.4 116.292C116.4 119.225 118.778 121.603 121.711 121.603Z" fill="#263238"/>
<path d="M108.348 122.453L108.055 121.896C108.03 121.846 105.284 116.773 99.7645 116.773C94.7425 116.773 93.4871 121.549 93.4536 121.754L93.3029 122.36L92.0851 122.067L92.2316 121.456C92.2316 121.398 93.7298 115.518 99.7645 115.518C106.042 115.518 109.043 121.076 109.168 121.314L109.461 121.867L108.348 122.453Z" fill="#263238"/>
</svg>
