<svg width="24" height="30" viewBox="0 0 24 30" fill="none" xmlns="http://www.w3.org/2000/svg">
<path d="M19.9102 4.39453C19.9102 1.88912 16.5096 0 12 0C7.49045 0 4.08984 1.88912 4.08984 4.39453C4.08984 4.88004 4.48336 5.27344 4.96875 5.27344H19.0312C19.5166 5.27344 19.9102 4.88004 19.9102 4.39453Z" fill="#444444"/>
<path d="M10.0828 24.8805L10.7933 23.9332L9.76489 23.084L10.0828 24.8805Z" fill="#444444"/>
<path d="M13.0206 30.0003L13.4969 27.2498L11.9996 25.2535L10.5022 27.2499L10.9786 30.0003H13.0206Z" fill="#444444"/>
<path d="M14.2346 23.0844L13.2064 23.9333L13.9168 24.8805L14.2346 23.0844Z" fill="#444444"/>
<path d="M7.33852 19.4547L6.86818 19.5319C3.22125 20.1285 0.574219 23.2253 0.574219 26.8962V30.0001H9.19453L7.33852 19.4547Z" fill="#444444"/>
<path d="M23.4258 26.8962C23.4258 23.2253 20.7788 20.1285 17.1319 19.5319L16.6612 19.4547L14.8054 30.0001H23.4258V26.8962Z" fill="#444444"/>
<path d="M14.9122 19.2559C14.537 19.3322 14.1562 19.3943 13.7581 19.3943H10.2424C9.84417 19.3943 9.46331 19.3322 9.08813 19.2559L9.29292 20.4133L12.0003 22.649L14.7072 20.4137L14.9122 19.2559Z" fill="#444444"/>
<path d="M10.2422 17.6364H13.7578C16.1808 17.6364 18.1523 15.6649 18.1523 13.2419V10.9366C17.6332 11.2393 17.0377 11.4255 16.3945 11.4255H7.60547C6.96229 11.4255 6.3668 11.2393 5.84766 10.9366V13.2419C5.84766 15.6649 7.81916 17.6364 10.2422 17.6364Z" fill="#444444"/>
<path d="M7.60547 9.66797H16.3945C17.3654 9.66797 18.1523 8.881 18.1523 7.91016V7.03125H5.84766V7.91016C5.84766 8.881 6.63463 9.66797 7.60547 9.66797Z" fill="#444444"/>
</svg>
