<svg width="24" height="134" viewBox="0 0 24 134" fill="none" xmlns="http://www.w3.org/2000/svg">
<path d="M12 21.838C10.7369 20.7606 9.56619 19.5795 8.5 18.307C6.9 16.396 5 13.55 5 10.838C4.99858 8.00555 6.70425 5.45139 9.32107 4.3674C11.9379 3.28341 14.9501 3.88324 16.952 5.887C18.2685 7.19761 19.0059 8.98039 19 10.838C19 13.55 17.1 16.396 15.5 18.307C14.4338 19.5795 13.2631 20.7606 12 21.838ZM12 7.838C10.9282 7.838 9.93782 8.4098 9.40193 9.338C8.86603 10.2662 8.86603 11.4098 9.40193 12.338C9.93782 13.2662 10.9282 13.838 12 13.838C13.6569 13.838 15 12.4949 15 10.838C15 9.18115 13.6569 7.838 12 7.838Z" fill="#31C631"/>
<circle cx="12" cy="29.838" r="1" fill="#979797"/>
<circle cx="12" cy="35.838" r="1" fill="#979797"/>
<circle cx="12" cy="41.838" r="1" fill="#979797"/>
<circle cx="12" cy="47.838" r="1" fill="#979797"/>
<path d="M12 57.1621L15.5 53.6621L14.6771 52.838L12 55.5169L9.32346 52.838L8.5 53.6615L12 57.1621Z" fill="#979797"/>
<path d="M13.66 65.462C13.5649 64.9964 13.1553 64.662 12.68 64.662H5.5C4.94772 64.662 4.5 65.1098 4.5 65.662V80.662C4.5 81.2143 4.94772 81.662 5.5 81.662C6.05228 81.662 6.5 81.2143 6.5 80.662V74.662H12.1L12.34 75.862C12.4307 76.3303 12.8431 76.6669 13.32 76.662H18.5C19.0523 76.662 19.5 76.2143 19.5 75.662V67.662C19.5 67.1098 19.0523 66.662 18.5 66.662H13.9L13.66 65.462Z" fill="#A02167"/>
<circle cx="12" cy="90.162" r="1" fill="#979797"/>
<circle cx="12" cy="96.162" r="1" fill="#979797"/>
<circle cx="12" cy="102.162" r="1" fill="#979797"/>
<circle cx="12" cy="108.162" r="1" fill="#979797"/>
<path d="M12 114.412C7.16797 114.412 3.25 118.33 3.25 123.162C3.25 127.994 7.16797 131.912 12 131.912C16.832 131.912 20.75 127.994 20.75 123.162C20.75 118.33 16.832 114.412 12 114.412ZM15.75 123.631C15.75 123.717 15.6797 123.787 15.5938 123.787H12.625V126.756C12.625 126.842 12.5547 126.912 12.4688 126.912H11.5312C11.4453 126.912 11.375 126.842 11.375 126.756V123.787H8.40625C8.32031 123.787 8.25 123.717 8.25 123.631V122.693C8.25 122.607 8.32031 122.537 8.40625 122.537H11.375V119.568C11.375 119.482 11.4453 119.412 11.5312 119.412H12.4688C12.5547 119.412 12.625 119.482 12.625 119.568V122.537H15.5938C15.6797 122.537 15.75 122.607 15.75 122.693V123.631Z" fill="#444444"/>
</svg>
